<?xml version="1.0" encoding="utf-8" standalone="no"?>
<!DOCTYPE svg PUBLIC "-//W3C//DTD SVG 1.1//EN"
  "http://www.w3.org/Graphics/SVG/1.1/DTD/svg11.dtd">
<svg xmlns:xlink="http://www.w3.org/1999/xlink" width="391.117906pt" height="192.800375pt" viewBox="0 0 391.117906 192.800375" xmlns="http://www.w3.org/2000/svg" version="1.1">
 <metadata>
  <rdf:RDF xmlns:dc="http://purl.org/dc/elements/1.1/" xmlns:cc="http://creativecommons.org/ns#" xmlns:rdf="http://www.w3.org/1999/02/22-rdf-syntax-ns#">
   <cc:Work>
    <dc:type rdf:resource="http://purl.org/dc/dcmitype/StillImage"/>
    <dc:date>2025-12-10T17:33:05.115542</dc:date>
    <dc:format>image/svg+xml</dc:format>
    <dc:creator>
     <cc:Agent>
      <dc:title>Matplotlib v3.7.1, https://matplotlib.org/</dc:title>
     </cc:Agent>
    </dc:creator>
   </cc:Work>
  </rdf:RDF>
 </metadata>
 <defs>
  <style type="text/css">*{stroke-linejoin: round; stroke-linecap: butt}</style>
 </defs>
 <g id="figure_1">
  <g id="patch_1">
   <path d="M 0 192.800375 
L 391.117906 192.800375 
L 391.117906 0 
L 0 0 
z
" style="fill: #ffffff"/>
  </g>
  <g id="axes_1">
   <g id="patch_2">
    <path d="M 44.657813 155.400375 
L 383.917906 155.400375 
L 383.917906 22.344375 
L 44.657813 22.344375 
z
" style="fill: #ffffff"/>
   </g>
   <g id="matplotlib.axis_1">
    <g id="xtick_1">
     <g id="line2d_1">
      <defs>
       <path id="m995123d2de" d="M 0 0 
L 0 3.5 
" style="stroke: #000000; stroke-width: 0.8"/>
      </defs>
      <g>
       <use xlink:href="#m995123d2de" x="49.519207" y="155.400375" style="stroke: #000000; stroke-width: 0.8"/>
      </g>
     </g>
     <g id="text_1">
      <!-- 0.8 -->
      <g transform="translate(42.569988 169.900375) scale(0.1 -0.1)">
       <defs>
        <path id="FrutigerLT-Light-30" d="M 1779 4128 
Q 2131 4122 2336 3942 
Q 2541 3757 2643 3462 
Q 2746 3168 2784 2848 
Q 2803 2515 2803 2234 
Q 2803 1952 2784 1626 
Q 2746 1306 2643 1011 
Q 2541 717 2336 538 
Q 2131 339 1779 339 
Q 1434 339 1235 538 
Q 1024 717 922 1011 
Q 819 1306 787 1626 
Q 755 1952 755 2234 
Q 755 2515 787 2848 
Q 819 3168 922 3462 
Q 1024 3757 1235 3942 
Q 1434 4122 1779 4128 
z
M 1779 4512 
Q 1344 4506 1056 4307 
Q 762 4102 602 3770 
Q 301 3066 314 2234 
Q 307 1882 371 1491 
Q 429 1094 576 749 
Q 730 403 1024 186 
Q 1312 -38 1779 -45 
Q 2259 -38 2554 186 
Q 2848 403 2995 749 
Q 3149 1094 3200 1491 
Q 3245 1882 3245 2234 
Q 3258 3066 2963 3770 
Q 2803 4102 2515 4307 
Q 2227 4506 1779 4512 
z
" transform="scale(0.015625)"/>
        <path id="FrutigerLT-Light-2e" d="M 627 0 
L 1146 0 
L 1146 538 
L 627 538 
L 627 0 
z
" transform="scale(0.015625)"/>
        <path id="FrutigerLT-Light-38" d="M 435 3469 
Q 442 3034 710 2758 
Q 973 2483 1325 2323 
Q 883 2182 595 1920 
Q 301 1651 294 1146 
Q 294 838 435 621 
Q 563 390 774 250 
Q 1222 -45 1779 -45 
Q 2342 -45 2790 230 
Q 3251 499 3264 1146 
Q 3258 1664 2970 1920 
Q 2675 2176 2202 2323 
Q 2534 2496 2822 2784 
Q 3104 3059 3117 3469 
Q 3104 4013 2714 4269 
Q 2323 4512 1779 4512 
Q 1344 4512 909 4275 
Q 704 4154 576 3955 
Q 435 3757 435 3469 
z
M 2822 1184 
Q 2816 730 2502 531 
Q 2189 333 1779 339 
Q 1382 339 1069 557 
Q 922 666 832 819 
Q 736 966 736 1146 
Q 736 1382 832 1542 
Q 922 1702 1069 1811 
Q 1216 1926 1402 2010 
Q 1587 2086 1779 2157 
Q 1939 2080 2125 2003 
Q 2304 1920 2458 1805 
Q 2624 1702 2720 1549 
Q 2822 1395 2822 1184 
z
M 877 3430 
Q 883 3782 1158 3955 
Q 1421 4128 1779 4128 
Q 2112 4128 2387 3962 
Q 2669 3789 2675 3430 
Q 2675 3258 2598 3123 
Q 2522 2976 2381 2861 
Q 2106 2637 1779 2483 
Q 1645 2554 1491 2637 
Q 1338 2720 1197 2835 
Q 1062 2950 973 3098 
Q 877 3238 877 3430 
z
" transform="scale(0.015625)"/>
       </defs>
       <use xlink:href="#FrutigerLT-Light-30"/>
       <use xlink:href="#FrutigerLT-Light-2e" x="55.599991"/>
       <use xlink:href="#FrutigerLT-Light-38" x="83.399979"/>
      </g>
     </g>
    </g>
    <g id="xtick_2">
     <g id="line2d_2">
      <g>
       <use xlink:href="#m995123d2de" x="97.432949" y="155.400375" style="stroke: #000000; stroke-width: 0.8"/>
      </g>
     </g>
     <g id="text_2">
      <!-- 1.0 -->
      <g transform="translate(90.483731 169.900375) scale(0.1 -0.1)">
       <defs>
        <path id="FrutigerLT-Light-31" d="M 787 3622 
L 1030 3334 
L 1754 3968 
L 1754 0 
L 2195 0 
L 2195 4467 
L 1798 4467 
L 787 3622 
z
" transform="scale(0.015625)"/>
       </defs>
       <use xlink:href="#FrutigerLT-Light-31"/>
       <use xlink:href="#FrutigerLT-Light-2e" x="55.599991"/>
       <use xlink:href="#FrutigerLT-Light-30" x="83.399979"/>
      </g>
     </g>
    </g>
    <g id="xtick_3">
     <g id="line2d_3">
      <g>
       <use xlink:href="#m995123d2de" x="145.346692" y="155.400375" style="stroke: #000000; stroke-width: 0.8"/>
      </g>
     </g>
     <g id="text_3">
      <!-- 1.2 -->
      <g transform="translate(138.397473 169.900375) scale(0.1 -0.1)">
       <defs>
        <path id="FrutigerLT-Light-32" d="M 320 0 
L 3002 0 
L 3002 384 
L 864 384 
L 1670 1267 
Q 2125 1754 2502 2298 
Q 2886 2835 2899 3341 
Q 2893 3942 2528 4230 
Q 2170 4512 1606 4512 
Q 1331 4512 1037 4429 
Q 736 4339 480 4211 
L 557 3808 
Q 1056 4122 1632 4128 
Q 1978 4122 2195 3904 
Q 2413 3686 2419 3322 
Q 2406 2912 2086 2445 
Q 1766 1971 1344 1517 
L 320 384 
L 320 0 
z
" transform="scale(0.015625)"/>
       </defs>
       <use xlink:href="#FrutigerLT-Light-31"/>
       <use xlink:href="#FrutigerLT-Light-2e" x="55.599991"/>
       <use xlink:href="#FrutigerLT-Light-32" x="83.399979"/>
      </g>
     </g>
    </g>
    <g id="xtick_4">
     <g id="line2d_4">
      <g>
       <use xlink:href="#m995123d2de" x="193.260434" y="155.400375" style="stroke: #000000; stroke-width: 0.8"/>
      </g>
     </g>
     <g id="text_4">
      <!-- 1.4 -->
      <g transform="translate(186.311216 169.900375) scale(0.1 -0.1)">
       <defs>
        <path id="FrutigerLT-Light-34" d="M 2278 1414 
L 550 1414 
L 2266 4026 
L 2278 4026 
L 2278 1414 
z
M 147 1030 
L 2278 1030 
L 2278 0 
L 2720 0 
L 2720 1030 
L 3379 1030 
L 3379 1414 
L 2720 1414 
L 2720 4467 
L 2157 4467 
L 147 1466 
L 147 1030 
z
" transform="scale(0.015625)"/>
       </defs>
       <use xlink:href="#FrutigerLT-Light-31"/>
       <use xlink:href="#FrutigerLT-Light-2e" x="55.599991"/>
       <use xlink:href="#FrutigerLT-Light-34" x="83.399979"/>
      </g>
     </g>
    </g>
    <g id="xtick_5">
     <g id="line2d_5">
      <g>
       <use xlink:href="#m995123d2de" x="241.174177" y="155.400375" style="stroke: #000000; stroke-width: 0.8"/>
      </g>
     </g>
     <g id="text_5">
      <!-- 1.6 -->
      <g transform="translate(234.224958 169.900375) scale(0.1 -0.1)">
       <defs>
        <path id="FrutigerLT-Light-36" d="M 1786 -45 
Q 2483 -38 2861 371 
Q 3238 768 3245 1427 
Q 3245 1850 3117 2125 
Q 2989 2394 2778 2547 
Q 2573 2701 2330 2765 
Q 2086 2822 1856 2822 
Q 1542 2822 1267 2694 
Q 986 2560 806 2272 
L 794 2272 
Q 794 2618 870 2957 
Q 947 3290 1120 3552 
Q 1299 3827 1594 3981 
Q 1882 4134 2310 4128 
Q 2733 4122 3046 3987 
L 3085 4410 
Q 2733 4506 2368 4512 
Q 1254 4499 800 3802 
Q 346 3117 352 2074 
Q 352 1677 416 1306 
Q 474 928 627 627 
Q 787 326 1069 147 
Q 1344 -38 1786 -45 
z
M 1856 2438 
Q 2797 2419 2803 1395 
Q 2803 934 2554 646 
Q 2291 346 1798 339 
Q 1312 346 1075 691 
Q 838 1018 838 1446 
Q 838 1894 1114 2170 
Q 1376 2432 1856 2438 
z
" transform="scale(0.015625)"/>
       </defs>
       <use xlink:href="#FrutigerLT-Light-31"/>
       <use xlink:href="#FrutigerLT-Light-2e" x="55.599991"/>
       <use xlink:href="#FrutigerLT-Light-36" x="83.399979"/>
      </g>
     </g>
    </g>
    <g id="xtick_6">
     <g id="line2d_6">
      <g>
       <use xlink:href="#m995123d2de" x="289.08792" y="155.400375" style="stroke: #000000; stroke-width: 0.8"/>
      </g>
     </g>
     <g id="text_6">
      <!-- 1.8 -->
      <g transform="translate(282.138701 169.900375) scale(0.1 -0.1)">
       <use xlink:href="#FrutigerLT-Light-31"/>
       <use xlink:href="#FrutigerLT-Light-2e" x="55.599991"/>
       <use xlink:href="#FrutigerLT-Light-38" x="83.399979"/>
      </g>
     </g>
    </g>
    <g id="xtick_7">
     <g id="line2d_7">
      <g>
       <use xlink:href="#m995123d2de" x="337.001662" y="155.400375" style="stroke: #000000; stroke-width: 0.8"/>
      </g>
     </g>
     <g id="text_7">
      <!-- 2.0 -->
      <g transform="translate(330.052443 169.900375) scale(0.1 -0.1)">
       <use xlink:href="#FrutigerLT-Light-32"/>
       <use xlink:href="#FrutigerLT-Light-2e" x="55.599991"/>
       <use xlink:href="#FrutigerLT-Light-30" x="83.399979"/>
      </g>
     </g>
    </g>
    <g id="text_8">
     <!-- access time [ms] -->
     <g transform="translate(179.847234 183.500375) scale(0.1 -0.1)">
      <defs>
       <path id="FrutigerLT-Light-61" d="M 2381 0 
L 2778 0 
Q 2739 314 2746 685 
L 2746 2125 
Q 2758 3354 1600 3341 
Q 1094 3328 640 3117 
L 640 2726 
Q 1094 3002 1600 2995 
Q 2362 2995 2342 2157 
L 2342 1990 
L 2266 1990 
Q 1946 1990 1600 1971 
Q 1248 1939 947 1830 
Q 646 1728 454 1491 
Q 256 1254 256 845 
Q 243 595 448 275 
Q 563 128 781 32 
Q 992 -70 1331 -77 
Q 1651 -70 1939 83 
Q 2227 237 2368 525 
L 2381 525 
L 2381 0 
z
M 2342 1446 
Q 2342 1318 2330 1120 
Q 2317 928 2221 730 
Q 2131 544 1933 410 
Q 1728 269 1376 269 
Q 1094 269 902 410 
Q 698 544 698 858 
Q 698 1126 845 1286 
Q 979 1446 1203 1523 
Q 1427 1606 1702 1632 
Q 1965 1645 2227 1645 
L 2342 1645 
L 2342 1446 
z
" transform="scale(0.015625)"/>
       <path id="FrutigerLT-Light-63" d="M 2662 3213 
Q 2624 3232 2554 3258 
Q 2477 3277 2374 3296 
Q 2176 3341 1875 3341 
Q 1146 3334 710 2867 
Q 269 2406 262 1632 
Q 262 934 653 442 
Q 1037 -64 1824 -77 
Q 2266 -83 2662 38 
L 2624 416 
Q 2266 269 1888 269 
Q 1338 275 1024 678 
Q 704 1062 704 1632 
Q 704 2240 1030 2618 
Q 1344 2989 1933 2995 
Q 2285 2989 2630 2829 
L 2662 3213 
z
" transform="scale(0.015625)"/>
       <path id="FrutigerLT-Light-65" d="M 2694 512 
Q 2541 422 2278 352 
Q 2016 269 1779 269 
Q 1248 275 979 640 
Q 704 986 704 1517 
L 2938 1517 
L 2938 1722 
Q 2938 2400 2637 2861 
Q 2323 3328 1638 3341 
Q 1011 3334 646 2867 
Q 269 2394 262 1632 
Q 256 883 602 416 
Q 947 -64 1747 -77 
Q 2234 -70 2694 102 
L 2694 512 
z
M 704 1862 
Q 704 2291 966 2637 
Q 1222 2982 1664 2995 
Q 2112 2982 2310 2643 
Q 2496 2310 2496 1862 
L 704 1862 
z
" transform="scale(0.015625)"/>
       <path id="FrutigerLT-Light-73" d="M 256 474 
L 218 77 
Q 659 -77 1133 -77 
Q 1536 -77 1894 134 
Q 2061 243 2170 422 
Q 2272 595 2272 851 
Q 2266 1248 2029 1472 
Q 1792 1696 1472 1830 
Q 1331 1907 1184 1971 
Q 1037 2042 922 2106 
Q 806 2176 736 2259 
Q 666 2349 666 2451 
Q 666 2618 723 2720 
Q 774 2822 870 2880 
Q 1056 2995 1370 2995 
Q 1741 2989 2093 2842 
L 2131 3194 
Q 1914 3277 1690 3315 
Q 1466 3341 1325 3341 
Q 909 3341 595 3142 
Q 269 2938 262 2451 
Q 262 2278 333 2150 
Q 403 2016 512 1914 
Q 634 1818 768 1741 
Q 902 1664 1050 1594 
Q 1363 1466 1594 1306 
Q 1824 1139 1830 851 
Q 1824 576 1619 429 
Q 1408 269 1107 269 
Q 627 275 256 474 
z
" transform="scale(0.015625)"/>
       <path id="FrutigerLT-Light-20" transform="scale(0.015625)"/>
       <path id="FrutigerLT-Light-74" d="M 1914 3264 
L 1171 3264 
L 1171 4192 
L 768 4051 
L 768 3264 
L 128 3264 
L 128 2918 
L 768 2918 
L 768 1011 
Q 768 787 787 595 
Q 806 403 870 250 
Q 947 102 1094 13 
Q 1248 -77 1510 -77 
Q 1670 -77 1805 -45 
Q 1933 -13 2003 13 
L 1978 346 
Q 1824 269 1606 269 
Q 1370 269 1274 429 
Q 1171 582 1171 806 
L 1171 2918 
L 1914 2918 
L 1914 3264 
z
" transform="scale(0.015625)"/>
       <path id="FrutigerLT-Light-69" d="M 506 0 
L 909 0 
L 909 3264 
L 506 3264 
L 506 0 
z
M 909 4672 
L 506 4672 
L 506 4134 
L 909 4134 
L 909 4672 
z
" transform="scale(0.015625)"/>
       <path id="FrutigerLT-Light-6d" d="M 4851 0 
L 4851 2246 
Q 4851 2739 4589 3034 
Q 4320 3334 3821 3341 
Q 3430 3334 3168 3142 
Q 2899 2944 2778 2650 
L 2765 2650 
Q 2726 2867 2630 3008 
Q 2534 3142 2406 3213 
Q 2278 3290 2150 3315 
Q 2016 3341 1901 3341 
Q 1645 3341 1472 3277 
Q 1299 3206 1184 3110 
Q 1069 3014 1005 2906 
Q 928 2797 883 2707 
L 870 2714 
L 870 3264 
L 480 3264 
Q 506 2874 506 2496 
L 506 0 
L 909 0 
L 909 1805 
Q 915 2419 1184 2714 
Q 1446 2995 1786 2995 
Q 1984 2995 2118 2938 
Q 2253 2874 2330 2758 
Q 2413 2650 2451 2502 
Q 2477 2349 2477 2170 
L 2477 0 
L 2880 0 
L 2880 1805 
Q 2886 2419 3155 2714 
Q 3418 2995 3757 2995 
Q 3955 2995 4090 2938 
Q 4224 2874 4301 2758 
Q 4384 2650 4422 2502 
Q 4448 2349 4448 2170 
L 4448 0 
L 4851 0 
z
" transform="scale(0.015625)"/>
       <path id="FrutigerLT-Light-5b" d="M 442 -896 
L 1478 -896 
L 1478 -589 
L 845 -589 
L 845 4531 
L 1478 4531 
L 1478 4838 
L 442 4838 
L 442 -896 
z
" transform="scale(0.015625)"/>
       <path id="FrutigerLT-Light-5d" d="M 1338 4838 
L 301 4838 
L 301 4531 
L 934 4531 
L 934 -589 
L 301 -589 
L 301 -896 
L 1338 -896 
L 1338 4838 
z
" transform="scale(0.015625)"/>
      </defs>
      <use xlink:href="#FrutigerLT-Light-61"/>
      <use xlink:href="#FrutigerLT-Light-63" x="49.999985"/>
      <use xlink:href="#FrutigerLT-Light-63" x="94.399979"/>
      <use xlink:href="#FrutigerLT-Light-65" x="138.799973"/>
      <use xlink:href="#FrutigerLT-Light-73" x="188.799957"/>
      <use xlink:href="#FrutigerLT-Light-73" x="227.699951"/>
      <use xlink:href="#FrutigerLT-Light-20" x="266.599945"/>
      <use xlink:href="#FrutigerLT-Light-74" x="294.399933"/>
      <use xlink:href="#FrutigerLT-Light-69" x="327.699921"/>
      <use xlink:href="#FrutigerLT-Light-6d" x="349.899918"/>
      <use xlink:href="#FrutigerLT-Light-65" x="433.199905"/>
      <use xlink:href="#FrutigerLT-Light-20" x="483.19989"/>
      <use xlink:href="#FrutigerLT-Light-5b" x="510.999878"/>
      <use xlink:href="#FrutigerLT-Light-6d" x="538.799866"/>
      <use xlink:href="#FrutigerLT-Light-73" x="622.099854"/>
      <use xlink:href="#FrutigerLT-Light-5d" x="660.999847"/>
     </g>
    </g>
   </g>
   <g id="matplotlib.axis_2">
    <g id="ytick_1">
     <g id="line2d_8">
      <path d="M 44.657813 155.400375 
L 383.917906 155.400375 
" clip-path="url(#p071cdae00e)" style="fill: none; stroke-dasharray: 2.96,1.28; stroke-dashoffset: 0; stroke: #cccccc; stroke-width: 0.8"/>
     </g>
     <g id="line2d_9">
      <defs>
       <path id="mb22005931b" d="M 0 0 
L -3.5 0 
" style="stroke: #000000; stroke-width: 0.8"/>
      </defs>
      <g>
       <use xlink:href="#mb22005931b" x="44.657813" y="155.400375" style="stroke: #000000; stroke-width: 0.8"/>
      </g>
     </g>
     <g id="text_9">
      <!-- 0 -->
      <g transform="translate(32.098438 159.150375) scale(0.1 -0.1)">
       <use xlink:href="#FrutigerLT-Light-30"/>
      </g>
     </g>
    </g>
    <g id="ytick_2">
     <g id="line2d_10">
      <path d="M 44.657813 120.249196 
L 383.917906 120.249196 
" clip-path="url(#p071cdae00e)" style="fill: none; stroke-dasharray: 2.96,1.28; stroke-dashoffset: 0; stroke: #cccccc; stroke-width: 0.8"/>
     </g>
     <g id="line2d_11">
      <g>
       <use xlink:href="#mb22005931b" x="44.657813" y="120.249196" style="stroke: #000000; stroke-width: 0.8"/>
      </g>
     </g>
     <g id="text_10">
      <!-- 200 -->
      <g transform="translate(20.979688 123.999196) scale(0.1 -0.1)">
       <use xlink:href="#FrutigerLT-Light-32"/>
       <use xlink:href="#FrutigerLT-Light-30" x="55.599991"/>
       <use xlink:href="#FrutigerLT-Light-30" x="111.199982"/>
      </g>
     </g>
    </g>
    <g id="ytick_3">
     <g id="line2d_12">
      <path d="M 44.657813 85.098017 
L 383.917906 85.098017 
" clip-path="url(#p071cdae00e)" style="fill: none; stroke-dasharray: 2.96,1.28; stroke-dashoffset: 0; stroke: #cccccc; stroke-width: 0.8"/>
     </g>
     <g id="line2d_13">
      <g>
       <use xlink:href="#mb22005931b" x="44.657813" y="85.098017" style="stroke: #000000; stroke-width: 0.8"/>
      </g>
     </g>
     <g id="text_11">
      <!-- 400 -->
      <g transform="translate(20.979688 88.848017) scale(0.1 -0.1)">
       <use xlink:href="#FrutigerLT-Light-34"/>
       <use xlink:href="#FrutigerLT-Light-30" x="55.599991"/>
       <use xlink:href="#FrutigerLT-Light-30" x="111.199982"/>
      </g>
     </g>
    </g>
    <g id="ytick_4">
     <g id="line2d_14">
      <path d="M 44.657813 49.946838 
L 383.917906 49.946838 
" clip-path="url(#p071cdae00e)" style="fill: none; stroke-dasharray: 2.96,1.28; stroke-dashoffset: 0; stroke: #cccccc; stroke-width: 0.8"/>
     </g>
     <g id="line2d_15">
      <g>
       <use xlink:href="#mb22005931b" x="44.657813" y="49.946838" style="stroke: #000000; stroke-width: 0.8"/>
      </g>
     </g>
     <g id="text_12">
      <!-- 600 -->
      <g transform="translate(20.979688 53.696838) scale(0.1 -0.1)">
       <use xlink:href="#FrutigerLT-Light-36"/>
       <use xlink:href="#FrutigerLT-Light-30" x="55.599991"/>
       <use xlink:href="#FrutigerLT-Light-30" x="111.199982"/>
      </g>
     </g>
    </g>
    <g id="text_13">
     <!-- absolute frequency -->
     <g transform="translate(14.820313 129.430969) rotate(-90) scale(0.1 -0.1)">
      <defs>
       <path id="FrutigerLT-Light-62" d="M 467 0 
L 870 0 
L 870 518 
L 883 518 
Q 1203 -83 1901 -77 
Q 2573 -64 2912 416 
Q 3245 896 3245 1632 
Q 3245 2394 2938 2861 
Q 2618 3334 1901 3341 
Q 1664 3341 1485 3270 
Q 1306 3200 1178 3091 
Q 1056 2995 986 2893 
Q 909 2784 883 2714 
L 870 2714 
L 870 4800 
L 467 4800 
L 467 0 
z
M 2803 1632 
Q 2803 1402 2771 1165 
Q 2726 922 2611 717 
Q 2509 525 2317 403 
Q 2125 269 1837 269 
Q 1568 269 1389 403 
Q 1203 525 1088 730 
Q 864 1165 870 1632 
Q 864 2112 1082 2541 
Q 1197 2746 1382 2874 
Q 1568 2995 1837 2995 
Q 2125 2995 2317 2874 
Q 2509 2758 2611 2554 
Q 2726 2362 2771 2118 
Q 2803 1875 2803 1632 
z
" transform="scale(0.015625)"/>
       <path id="FrutigerLT-Light-6f" d="M 256 1632 
Q 256 947 627 448 
Q 998 -64 1779 -77 
Q 2573 -64 2944 448 
Q 3302 947 3302 1632 
Q 3302 2330 2944 2822 
Q 2573 3328 1779 3341 
Q 998 3328 627 2822 
Q 256 2330 256 1632 
z
M 698 1632 
Q 698 2214 979 2605 
Q 1248 2989 1779 2995 
Q 2310 2989 2592 2605 
Q 2861 2214 2861 1632 
Q 2861 1050 2592 672 
Q 2310 275 1779 269 
Q 1248 275 979 672 
Q 698 1050 698 1632 
z
" transform="scale(0.015625)"/>
       <path id="FrutigerLT-Light-6c" d="M 506 0 
L 909 0 
L 909 4800 
L 506 4800 
L 506 0 
z
" transform="scale(0.015625)"/>
       <path id="FrutigerLT-Light-75" d="M 3053 3264 
L 2650 3264 
L 2650 1459 
Q 2650 1254 2605 1050 
Q 2560 845 2445 666 
Q 2342 493 2150 384 
Q 1958 269 1683 269 
Q 1274 269 1094 550 
Q 909 813 909 1280 
L 909 3264 
L 506 3264 
L 506 1178 
Q 499 627 762 282 
Q 1024 -70 1619 -77 
Q 1875 -77 2054 -6 
Q 2234 51 2355 147 
Q 2477 250 2554 365 
Q 2630 474 2675 582 
L 2688 582 
L 2688 0 
L 3078 0 
Q 3046 397 3053 768 
L 3053 3264 
z
" transform="scale(0.015625)"/>
       <path id="FrutigerLT-Light-66" d="M 781 0 
L 1184 0 
L 1184 2918 
L 1920 2918 
L 1920 3264 
L 1184 3264 
L 1184 3546 
Q 1184 3706 1190 3878 
Q 1190 4045 1229 4192 
Q 1267 4339 1376 4442 
Q 1478 4531 1677 4531 
Q 1862 4531 1997 4461 
L 2022 4813 
Q 1965 4851 1856 4870 
Q 1747 4877 1645 4877 
Q 1338 4877 1165 4762 
Q 986 4646 902 4448 
Q 819 4256 806 4013 
Q 781 3763 781 3501 
L 781 3264 
L 122 3264 
L 122 2918 
L 781 2918 
L 781 0 
z
" transform="scale(0.015625)"/>
       <path id="FrutigerLT-Light-72" d="M 506 0 
L 909 0 
L 909 1613 
Q 909 1837 954 2074 
Q 992 2298 1082 2490 
Q 1178 2688 1331 2803 
Q 1485 2912 1722 2918 
Q 1882 2918 2016 2880 
L 2016 3302 
Q 1894 3334 1734 3341 
Q 1427 3334 1222 3130 
Q 1011 2925 896 2637 
L 883 2637 
L 883 3264 
L 480 3264 
Q 506 2989 506 2534 
L 506 0 
z
" transform="scale(0.015625)"/>
       <path id="FrutigerLT-Light-71" d="M 3091 3264 
L 2688 3264 
L 2688 2733 
L 2675 2733 
Q 2650 2784 2586 2880 
Q 2522 2976 2400 3085 
Q 2285 3194 2106 3270 
Q 1914 3341 1658 3341 
Q 947 3334 627 2861 
Q 307 2394 314 1632 
Q 314 896 653 416 
Q 986 -64 1658 -77 
Q 2400 -77 2675 557 
L 2688 557 
L 2688 -1344 
L 3091 -1344 
L 3091 3264 
z
M 755 1632 
Q 755 1875 800 2118 
Q 851 2362 954 2554 
Q 1069 2758 1254 2874 
Q 1434 2995 1722 2995 
Q 1990 2995 2182 2874 
Q 2362 2746 2477 2541 
Q 2592 2336 2643 2106 
Q 2688 1862 2688 1632 
Q 2694 1165 2477 730 
Q 2362 525 2182 403 
Q 1990 269 1722 269 
Q 1434 269 1254 403 
Q 1069 525 954 717 
Q 851 922 800 1165 
Q 755 1402 755 1632 
z
" transform="scale(0.015625)"/>
       <path id="FrutigerLT-Light-6e" d="M 506 0 
L 909 0 
L 909 1805 
Q 909 2022 960 2234 
Q 1005 2438 1120 2611 
Q 1338 2982 1875 2995 
Q 2291 2989 2477 2726 
Q 2650 2451 2650 1984 
L 2650 0 
L 3053 0 
L 3053 2086 
Q 3053 2637 2803 2982 
Q 2541 3334 1939 3341 
Q 1690 3341 1510 3283 
Q 1331 3226 1210 3123 
Q 1094 3027 1018 2912 
Q 941 2797 883 2682 
L 870 2682 
L 870 3264 
L 480 3264 
Q 506 2874 506 2496 
L 506 0 
z
" transform="scale(0.015625)"/>
       <path id="FrutigerLT-Light-79" d="M 499 3264 
L 58 3264 
L 1216 -38 
L 1133 -326 
Q 1050 -646 922 -832 
Q 794 -1030 544 -1037 
Q 442 -1037 371 -1018 
Q 301 -1005 243 -986 
L 205 -1331 
Q 416 -1382 640 -1382 
Q 813 -1376 947 -1299 
Q 1082 -1229 1178 -1101 
Q 1370 -838 1478 -486 
L 2784 3264 
L 2362 3264 
L 1421 544 
L 1414 544 
L 499 3264 
z
" transform="scale(0.015625)"/>
      </defs>
      <use xlink:href="#FrutigerLT-Light-61"/>
      <use xlink:href="#FrutigerLT-Light-62" x="49.999985"/>
      <use xlink:href="#FrutigerLT-Light-73" x="105.599976"/>
      <use xlink:href="#FrutigerLT-Light-6f" x="144.499969"/>
      <use xlink:href="#FrutigerLT-Light-6c" x="200.09996"/>
      <use xlink:href="#FrutigerLT-Light-75" x="222.299957"/>
      <use xlink:href="#FrutigerLT-Light-74" x="277.899948"/>
      <use xlink:href="#FrutigerLT-Light-65" x="311.199936"/>
      <use xlink:href="#FrutigerLT-Light-20" x="361.199921"/>
      <use xlink:href="#FrutigerLT-Light-66" x="388.999908"/>
      <use xlink:href="#FrutigerLT-Light-72" x="422.299896"/>
      <use xlink:href="#FrutigerLT-Light-65" x="455.599884"/>
      <use xlink:href="#FrutigerLT-Light-71" x="505.599869"/>
      <use xlink:href="#FrutigerLT-Light-75" x="561.19986"/>
      <use xlink:href="#FrutigerLT-Light-65" x="616.79985"/>
      <use xlink:href="#FrutigerLT-Light-6e" x="666.799835"/>
      <use xlink:href="#FrutigerLT-Light-63" x="722.399826"/>
      <use xlink:href="#FrutigerLT-Light-79" x="766.79982"/>
     </g>
    </g>
   </g>
   <g id="patch_3">
    <path d="M 44.657813 155.400375 
L 55.966482 155.400375 
L 55.966482 155.400375 
L 44.657813 155.400375 
z
" clip-path="url(#p071cdae00e)" style="fill: #1f77b4; stroke: #000000; stroke-linejoin: miter"/>
   </g>
   <g id="patch_4">
    <path d="M 55.966482 155.400375 
L 67.275152 155.400375 
L 67.275152 155.400375 
L 55.966482 155.400375 
z
" clip-path="url(#p071cdae00e)" style="fill: #1f77b4; stroke: #000000; stroke-linejoin: miter"/>
   </g>
   <g id="patch_5">
    <path d="M 67.275152 155.400375 
L 78.583822 155.400375 
L 78.583822 155.400375 
L 67.275152 155.400375 
z
" clip-path="url(#p071cdae00e)" style="fill: #1f77b4; stroke: #000000; stroke-linejoin: miter"/>
   </g>
   <g id="patch_6">
    <path d="M 78.583822 155.400375 
L 89.892492 155.400375 
L 89.892492 155.400375 
L 78.583822 155.400375 
z
" clip-path="url(#p071cdae00e)" style="fill: #1f77b4; stroke: #000000; stroke-linejoin: miter"/>
   </g>
   <g id="patch_7">
    <path d="M 89.892492 155.400375 
L 101.201161 155.400375 
L 101.201161 155.400375 
L 89.892492 155.400375 
z
" clip-path="url(#p071cdae00e)" style="fill: #1f77b4; stroke: #000000; stroke-linejoin: miter"/>
   </g>
   <g id="patch_8">
    <path d="M 101.201162 155.400375 
L 112.509831 155.400375 
L 112.509831 155.400375 
L 101.201162 155.400375 
z
" clip-path="url(#p071cdae00e)" style="fill: #1f77b4; stroke: #000000; stroke-linejoin: miter"/>
   </g>
   <g id="patch_9">
    <path d="M 112.509831 155.400375 
L 123.818501 155.400375 
L 123.818501 155.400375 
L 112.509831 155.400375 
z
" clip-path="url(#p071cdae00e)" style="fill: #1f77b4; stroke: #000000; stroke-linejoin: miter"/>
   </g>
   <g id="patch_10">
    <path d="M 123.818501 155.400375 
L 135.127171 155.400375 
L 135.127171 155.400375 
L 123.818501 155.400375 
z
" clip-path="url(#p071cdae00e)" style="fill: #1f77b4; stroke: #000000; stroke-linejoin: miter"/>
   </g>
   <g id="patch_11">
    <path d="M 135.127171 155.400375 
L 146.435841 155.400375 
L 146.435841 155.400375 
L 135.127171 155.400375 
z
" clip-path="url(#p071cdae00e)" style="fill: #1f77b4; stroke: #000000; stroke-linejoin: miter"/>
   </g>
   <g id="patch_12">
    <path d="M 146.435841 155.400375 
L 157.744511 155.400375 
L 157.744511 155.400375 
L 146.435841 155.400375 
z
" clip-path="url(#p071cdae00e)" style="fill: #1f77b4; stroke: #000000; stroke-linejoin: miter"/>
   </g>
   <g id="patch_13">
    <path d="M 157.74451 155.400375 
L 169.05318 155.400375 
L 169.05318 155.400375 
L 157.74451 155.400375 
z
" clip-path="url(#p071cdae00e)" style="fill: #1f77b4; stroke: #000000; stroke-linejoin: miter"/>
   </g>
   <g id="patch_14">
    <path d="M 169.05318 155.400375 
L 180.36185 155.400375 
L 180.36185 28.680375 
L 169.05318 28.680375 
z
" clip-path="url(#p071cdae00e)" style="fill: #1f77b4; stroke: #000000; stroke-linejoin: miter"/>
   </g>
   <g id="patch_15">
    <path d="M 180.36185 155.400375 
L 191.67052 155.400375 
L 191.67052 155.400375 
L 180.36185 155.400375 
z
" clip-path="url(#p071cdae00e)" style="fill: #1f77b4; stroke: #000000; stroke-linejoin: miter"/>
   </g>
   <g id="patch_16">
    <path d="M 191.67052 155.400375 
L 202.97919 155.400375 
L 202.97919 155.400375 
L 191.67052 155.400375 
z
" clip-path="url(#p071cdae00e)" style="fill: #1f77b4; stroke: #000000; stroke-linejoin: miter"/>
   </g>
   <g id="patch_17">
    <path d="M 202.97919 155.400375 
L 214.28786 155.400375 
L 214.28786 155.400375 
L 202.97919 155.400375 
z
" clip-path="url(#p071cdae00e)" style="fill: #1f77b4; stroke: #000000; stroke-linejoin: miter"/>
   </g>
   <g id="patch_18">
    <path d="M 214.287859 155.400375 
L 225.596529 155.400375 
L 225.596529 155.400375 
L 214.287859 155.400375 
z
" clip-path="url(#p071cdae00e)" style="fill: #1f77b4; stroke: #000000; stroke-linejoin: miter"/>
   </g>
   <g id="patch_19">
    <path d="M 225.596529 155.400375 
L 236.905199 155.400375 
L 236.905199 155.400375 
L 225.596529 155.400375 
z
" clip-path="url(#p071cdae00e)" style="fill: #1f77b4; stroke: #000000; stroke-linejoin: miter"/>
   </g>
   <g id="patch_20">
    <path d="M 236.905199 155.400375 
L 248.213869 155.400375 
L 248.213869 155.400375 
L 236.905199 155.400375 
z
" clip-path="url(#p071cdae00e)" style="fill: #1f77b4; stroke: #000000; stroke-linejoin: miter"/>
   </g>
   <g id="patch_21">
    <path d="M 248.213869 155.400375 
L 259.522539 155.400375 
L 259.522539 155.400375 
L 248.213869 155.400375 
z
" clip-path="url(#p071cdae00e)" style="fill: #1f77b4; stroke: #000000; stroke-linejoin: miter"/>
   </g>
   <g id="patch_22">
    <path d="M 259.522539 155.400375 
L 270.831208 155.400375 
L 270.831208 155.400375 
L 259.522539 155.400375 
z
" clip-path="url(#p071cdae00e)" style="fill: #1f77b4; stroke: #000000; stroke-linejoin: miter"/>
   </g>
   <g id="patch_23">
    <path d="M 270.831209 155.400375 
L 282.139878 155.400375 
L 282.139878 155.400375 
L 270.831209 155.400375 
z
" clip-path="url(#p071cdae00e)" style="fill: #1f77b4; stroke: #000000; stroke-linejoin: miter"/>
   </g>
   <g id="patch_24">
    <path d="M 282.139878 155.400375 
L 293.448548 155.400375 
L 293.448548 155.400375 
L 282.139878 155.400375 
z
" clip-path="url(#p071cdae00e)" style="fill: #1f77b4; stroke: #000000; stroke-linejoin: miter"/>
   </g>
   <g id="patch_25">
    <path d="M 293.448548 155.400375 
L 304.757218 155.400375 
L 304.757218 155.400375 
L 293.448548 155.400375 
z
" clip-path="url(#p071cdae00e)" style="fill: #1f77b4; stroke: #000000; stroke-linejoin: miter"/>
   </g>
   <g id="patch_26">
    <path d="M 304.757218 155.400375 
L 316.065888 155.400375 
L 316.065888 155.400375 
L 304.757218 155.400375 
z
" clip-path="url(#p071cdae00e)" style="fill: #1f77b4; stroke: #000000; stroke-linejoin: miter"/>
   </g>
   <g id="patch_27">
    <path d="M 316.065888 155.400375 
L 327.374557 155.400375 
L 327.374557 155.400375 
L 316.065888 155.400375 
z
" clip-path="url(#p071cdae00e)" style="fill: #1f77b4; stroke: #000000; stroke-linejoin: miter"/>
   </g>
   <g id="patch_28">
    <path d="M 327.374558 155.400375 
L 338.683227 155.400375 
L 338.683227 125.697629 
L 327.374558 125.697629 
z
" clip-path="url(#p071cdae00e)" style="fill: #1f77b4; stroke: #000000; stroke-linejoin: miter"/>
   </g>
   <g id="patch_29">
    <path d="M 338.683227 155.400375 
L 349.991897 155.400375 
L 349.991897 155.400375 
L 338.683227 155.400375 
z
" clip-path="url(#p071cdae00e)" style="fill: #1f77b4; stroke: #000000; stroke-linejoin: miter"/>
   </g>
   <g id="patch_30">
    <path d="M 349.991897 155.400375 
L 361.300567 155.400375 
L 361.300567 155.400375 
L 349.991897 155.400375 
z
" clip-path="url(#p071cdae00e)" style="fill: #1f77b4; stroke: #000000; stroke-linejoin: miter"/>
   </g>
   <g id="patch_31">
    <path d="M 361.300567 155.400375 
L 372.609237 155.400375 
L 372.609237 155.400375 
L 361.300567 155.400375 
z
" clip-path="url(#p071cdae00e)" style="fill: #1f77b4; stroke: #000000; stroke-linejoin: miter"/>
   </g>
   <g id="patch_32">
    <path d="M 372.609237 155.400375 
L 383.917906 155.400375 
L 383.917906 155.400375 
L 372.609237 155.400375 
z
" clip-path="url(#p071cdae00e)" style="fill: #1f77b4; stroke: #000000; stroke-linejoin: miter"/>
   </g>
   <g id="patch_33">
    <path d="M 44.657813 155.400375 
L 44.657813 22.344375 
" style="fill: none; stroke: #000000; stroke-width: 0.8; stroke-linejoin: miter; stroke-linecap: square"/>
   </g>
   <g id="patch_34">
    <path d="M 383.917906 155.400375 
L 383.917906 22.344375 
" style="fill: none; stroke: #000000; stroke-width: 0.8; stroke-linejoin: miter; stroke-linecap: square"/>
   </g>
   <g id="patch_35">
    <path d="M 44.657813 155.400375 
L 383.917906 155.400375 
" style="fill: none; stroke: #000000; stroke-width: 0.8; stroke-linejoin: miter; stroke-linecap: square"/>
   </g>
   <g id="patch_36">
    <path d="M 44.657813 22.344375 
L 383.917906 22.344375 
" style="fill: none; stroke: #000000; stroke-width: 0.8; stroke-linejoin: miter; stroke-linecap: square"/>
   </g>
   <g id="text_14">
    <!-- Read access times for TestInt_50 of beckhoff_to_open -->
    <g transform="translate(75.609109 16.344375) scale(0.12 -0.12)">
     <defs>
      <path id="FrutigerLT-Light-52" d="M 1005 4083 
L 1459 4083 
Q 1690 4083 1894 4070 
Q 2099 4051 2253 3974 
Q 2406 3904 2496 3744 
Q 2586 3584 2586 3309 
Q 2573 2854 2227 2669 
Q 1888 2483 1472 2490 
L 1005 2490 
L 1005 4083 
z
M 563 0 
L 1005 0 
L 1005 2106 
L 1370 2106 
Q 1530 2106 1651 2099 
Q 1773 2086 1869 2029 
Q 2061 1926 2240 1510 
L 2886 0 
L 3373 0 
L 2611 1728 
Q 2566 1843 2515 1939 
Q 2470 2035 2406 2099 
Q 2291 2234 2035 2266 
L 2035 2278 
Q 2458 2342 2739 2611 
Q 3021 2874 3027 3309 
Q 2995 4486 1715 4467 
L 563 4467 
L 563 0 
z
" transform="scale(0.015625)"/>
      <path id="FrutigerLT-Light-64" d="M 3091 4800 
L 2688 4800 
L 2688 2714 
L 2675 2714 
Q 2637 2867 2387 3091 
Q 2266 3200 2080 3270 
Q 1901 3341 1658 3341 
Q 947 3334 627 2861 
Q 307 2394 314 1632 
Q 314 896 653 416 
Q 986 -64 1658 -77 
Q 2355 -83 2675 518 
L 2688 518 
L 2688 0 
L 3091 0 
L 3091 4800 
z
M 755 1632 
Q 755 1875 800 2118 
Q 851 2362 954 2554 
Q 1069 2758 1254 2874 
Q 1434 2995 1722 2995 
Q 1990 2995 2182 2874 
Q 2362 2746 2477 2541 
Q 2592 2336 2643 2106 
Q 2688 1862 2688 1632 
Q 2694 1165 2477 730 
Q 2362 525 2182 403 
Q 1990 269 1722 269 
Q 1434 269 1254 403 
Q 1069 525 954 717 
Q 851 922 800 1165 
Q 755 1402 755 1632 
z
" transform="scale(0.015625)"/>
      <path id="FrutigerLT-Light-54" d="M 1382 0 
L 1824 0 
L 1824 4083 
L 3142 4083 
L 3142 4467 
L 64 4467 
L 64 4083 
L 1382 4083 
L 1382 0 
z
" transform="scale(0.015625)"/>
      <path id="FrutigerLT-Light-49" d="M 493 0 
L 934 0 
L 934 4467 
L 493 4467 
L 493 0 
z
" transform="scale(0.015625)"/>
      <path id="FrutigerLT-Light-5f" d="M 0 -480 
L 0 -800 
L 3200 -800 
L 3200 -480 
L 0 -480 
z
" transform="scale(0.015625)"/>
      <path id="FrutigerLT-Light-35" d="M 2931 4467 
L 646 4467 
L 602 2221 
Q 1050 2362 1568 2362 
Q 2688 2368 2688 1350 
Q 2675 838 2317 589 
Q 1965 339 1504 339 
Q 1005 339 550 570 
L 550 115 
Q 1011 -45 1504 -45 
Q 2240 -45 2682 333 
Q 3123 698 3130 1440 
Q 3104 2726 1728 2746 
Q 1478 2746 1318 2720 
Q 1158 2688 1050 2650 
L 1082 4083 
L 2931 4083 
L 2931 4467 
z
" transform="scale(0.015625)"/>
      <path id="FrutigerLT-Light-6b" d="M 506 0 
L 909 0 
L 909 1677 
L 2522 0 
L 3078 0 
L 1293 1818 
L 2886 3264 
L 2368 3264 
L 909 1926 
L 909 4800 
L 506 4800 
L 506 0 
z
" transform="scale(0.015625)"/>
      <path id="FrutigerLT-Light-68" d="M 506 0 
L 909 0 
L 909 1747 
Q 902 2202 1126 2592 
Q 1350 2982 1875 2995 
Q 2362 2989 2515 2682 
Q 2598 2541 2624 2355 
Q 2650 2163 2650 1946 
L 2650 0 
L 3053 0 
L 3053 1952 
Q 3059 2573 2829 2957 
Q 2592 3334 1939 3341 
Q 1581 3334 1318 3168 
Q 1056 2989 922 2714 
L 909 2714 
L 909 4800 
L 506 4800 
L 506 0 
z
" transform="scale(0.015625)"/>
      <path id="FrutigerLT-Light-70" d="M 467 -1344 
L 870 -1344 
L 870 557 
L 883 557 
Q 1158 -77 1901 -77 
Q 2573 -64 2912 416 
Q 3245 896 3245 1632 
Q 3245 2394 2938 2861 
Q 2618 3334 1901 3341 
Q 1645 3341 1466 3270 
Q 1286 3187 1165 3078 
Q 1043 2970 973 2861 
Q 896 2739 858 2669 
L 845 2669 
L 870 3264 
L 467 3264 
L 467 -1344 
z
M 2803 1632 
Q 2803 1402 2771 1165 
Q 2726 922 2611 717 
Q 2509 525 2317 403 
Q 2125 269 1837 269 
Q 1568 269 1389 403 
Q 1203 525 1088 730 
Q 864 1165 870 1632 
Q 870 1862 928 2106 
Q 973 2336 1088 2541 
Q 1203 2746 1389 2874 
Q 1568 2995 1837 2995 
Q 2125 2995 2317 2874 
Q 2509 2758 2611 2554 
Q 2726 2362 2771 2118 
Q 2803 1875 2803 1632 
z
" transform="scale(0.015625)"/>
     </defs>
     <use xlink:href="#FrutigerLT-Light-52"/>
     <use xlink:href="#FrutigerLT-Light-65" x="55.599991"/>
     <use xlink:href="#FrutigerLT-Light-61" x="105.599976"/>
     <use xlink:href="#FrutigerLT-Light-64" x="155.59996"/>
     <use xlink:href="#FrutigerLT-Light-20" x="211.199951"/>
     <use xlink:href="#FrutigerLT-Light-61" x="238.999939"/>
     <use xlink:href="#FrutigerLT-Light-63" x="288.999924"/>
     <use xlink:href="#FrutigerLT-Light-63" x="333.399918"/>
     <use xlink:href="#FrutigerLT-Light-65" x="377.799911"/>
     <use xlink:href="#FrutigerLT-Light-73" x="427.799896"/>
     <use xlink:href="#FrutigerLT-Light-73" x="466.69989"/>
     <use xlink:href="#FrutigerLT-Light-20" x="505.599884"/>
     <use xlink:href="#FrutigerLT-Light-74" x="533.399872"/>
     <use xlink:href="#FrutigerLT-Light-69" x="566.69986"/>
     <use xlink:href="#FrutigerLT-Light-6d" x="588.899857"/>
     <use xlink:href="#FrutigerLT-Light-65" x="672.199844"/>
     <use xlink:href="#FrutigerLT-Light-73" x="722.199829"/>
     <use xlink:href="#FrutigerLT-Light-20" x="761.099823"/>
     <use xlink:href="#FrutigerLT-Light-66" x="788.899811"/>
     <use xlink:href="#FrutigerLT-Light-6f" x="822.199799"/>
     <use xlink:href="#FrutigerLT-Light-72" x="877.799789"/>
     <use xlink:href="#FrutigerLT-Light-20" x="911.099777"/>
     <use xlink:href="#FrutigerLT-Light-54" x="938.899765"/>
     <use xlink:href="#FrutigerLT-Light-65" x="988.89975"/>
     <use xlink:href="#FrutigerLT-Light-73" x="1038.899734"/>
     <use xlink:href="#FrutigerLT-Light-74" x="1077.799728"/>
     <use xlink:href="#FrutigerLT-Light-49" x="1111.099716"/>
     <use xlink:href="#FrutigerLT-Light-6e" x="1133.299713"/>
     <use xlink:href="#FrutigerLT-Light-74" x="1188.899704"/>
     <use xlink:href="#FrutigerLT-Light-5f" x="1222.199692"/>
     <use xlink:href="#FrutigerLT-Light-35" x="1272.199677"/>
     <use xlink:href="#FrutigerLT-Light-30" x="1327.799667"/>
     <use xlink:href="#FrutigerLT-Light-20" x="1383.399658"/>
     <use xlink:href="#FrutigerLT-Light-6f" x="1411.199646"/>
     <use xlink:href="#FrutigerLT-Light-66" x="1466.799637"/>
     <use xlink:href="#FrutigerLT-Light-20" x="1500.099625"/>
     <use xlink:href="#FrutigerLT-Light-62" x="1527.899612"/>
     <use xlink:href="#FrutigerLT-Light-65" x="1583.499603"/>
     <use xlink:href="#FrutigerLT-Light-63" x="1633.499588"/>
     <use xlink:href="#FrutigerLT-Light-6b" x="1677.899582"/>
     <use xlink:href="#FrutigerLT-Light-68" x="1727.899567"/>
     <use xlink:href="#FrutigerLT-Light-6f" x="1783.499557"/>
     <use xlink:href="#FrutigerLT-Light-66" x="1839.099548"/>
     <use xlink:href="#FrutigerLT-Light-66" x="1872.399536"/>
     <use xlink:href="#FrutigerLT-Light-5f" x="1905.699524"/>
     <use xlink:href="#FrutigerLT-Light-74" x="1955.699509"/>
     <use xlink:href="#FrutigerLT-Light-6f" x="1988.999496"/>
     <use xlink:href="#FrutigerLT-Light-5f" x="2044.599487"/>
     <use xlink:href="#FrutigerLT-Light-6f" x="2094.599472"/>
     <use xlink:href="#FrutigerLT-Light-70" x="2150.199463"/>
     <use xlink:href="#FrutigerLT-Light-65" x="2205.799454"/>
     <use xlink:href="#FrutigerLT-Light-6e" x="2255.799438"/>
    </g>
   </g>
  </g>
 </g>
 <defs>
  <clipPath id="p071cdae00e">
   <rect x="44.657813" y="22.344375" width="339.260094" height="133.056"/>
  </clipPath>
 </defs>
</svg>
